<svg version="1.1" id="Layer_1" xmlns="http://www.w3.org/2000/svg" xmlns:xlink="http://www.w3.org/1999/xlink" x="0px" y="0px" viewBox="0 0 95.4 231.9059" xml:space="preserve">
<style type="text/css">
	.st0{fill:#3D424E;}
	.st1{fill:none;stroke:#3D424E;stroke-width:5;stroke-linecap:round;stroke-miterlimit:10;stroke-dasharray:1000px;stroke-dashoffset:1000px;}
</style>
<g>
	<path class="st0" d="M0.6,194.4059c2.4,1.5,4.9,2.3,7.2,2.3c2.9,0,4.8-1.5,4.8-3.7c0-5.3-12.6-2.7-12.6-11.7c0-4.4,3.8-7.5,9.3-7.5
		c2.3,0,4.7,0.5,7,1.4v4.5c-2.2-1.3-4.5-2-6.6-2c-2.7,0-4.7,1.4-4.7,3.5c0,5.2,12.6,2.6,12.6,11.7c0,4.6-3.9,7.7-9.4,7.7
		c-2.5,0-5.1-0.6-7.6-1.7C0.6,198.9059,0.6,194.4059,0.6,194.4059z"></path>
	<path class="st0" d="M26.6,181.4059H32v3.9h-5.4v8.7c0,1.5,1.1,2.7,2.8,2.7c0.8,0,1.7-0.3,2.7-0.8v4c-1.4,0.5-2.7,0.8-4,0.8
		c-3.7,0-6.3-2.5-6.3-6.1v-9.3h-3.2v-3.9h3.2v-5.3h4.8V181.4059z"></path>
	<path class="st0" d="M35.2,181.4059H40v1.9c1.4-1.5,3-2.3,4.6-2.3c0.5,0,1.1,0,1.6,0.2v4.3c-0.5-0.2-1.1-0.2-1.7-0.2
		c-1.6,0-3.3,0.9-4.5,2.4v12.6h-4.8V181.4059z"></path>
	<path class="st0" d="M51.4,173.5059c1.6,0,2.7,1.1,2.7,2.7c0,1.6-1.2,2.7-2.7,2.7c-1.6,0-2.7-1.1-2.7-2.7
		C48.6,174.6059,49.8,173.5059,51.4,173.5059z M49,181.4059h4.8v18.8H49V181.4059z"></path>
	<path class="st0" d="M57.7,181.4059h4.8v1.3c1.5-1.1,3.2-1.7,4.8-1.7c5,0,8.5,4.1,8.5,9.9c0,5.8-3.5,9.9-8.5,9.9
		c-1.6,0-3.3-0.6-4.8-1.8v9.6h-4.8V181.4059z M66.3,185.1059c-1.3,0-2.6,0.6-3.8,1.7v8.1c1.1,1.1,2.4,1.7,3.8,1.7
		c2.7,0,4.6-2.3,4.6-5.7C70.9,187.4059,69,185.1059,66.3,185.1059z"></path>
	<path class="st0" d="M87.1,180.9059c4.9,0,8.3,3.9,8.3,9.4c0,0.5,0,1.1-0.1,1.8H82.5c0.3,2.9,2.6,4.8,5.7,4.8
		c1.7,0,3.7-0.6,5.6-1.8v4c-2.1,1-4.3,1.5-6.4,1.5c-5.7,0-9.7-4.1-9.7-10C77.8,185.0059,81.7,180.9059,87.1,180.9059z
		 M90.7,189.0059c-0.2-2.6-1.7-4.3-3.8-4.3c-2.3,0-4.1,1.7-4.4,4.3H90.7z"></path>
	<path class="st0" d="M1.6,205.5059h9.2c5.3,0,9,3.4,9,8.3s-3.8,8.3-9,8.3H6.5v9.3H1.7v-25.9H1.6z M6.4,218.2059h3.7
		c2.8,0,4.7-1.8,4.7-4.4s-2-4.4-4.7-4.4H6.4V218.2059z"></path>
	<path class="st0" d="M22.3,212.6059h4.8v1.9c1.4-1.5,3-2.3,4.6-2.3c0.5,0,1.1,0,1.6,0.2v4.3c-0.5-0.2-1.1-0.2-1.7-0.2
		c-1.6,0-3.3,0.9-4.5,2.4v12.6h-4.8V212.6059z"></path>
	<path class="st0" d="M43.2,212.2059c4.9,0,8.3,3.9,8.3,9.4c0,0.5,0,1.1-0.1,1.8H38.6c0.3,2.9,2.6,4.8,5.7,4.8
		c1.7,0,3.7-0.6,5.6-1.8v4c-2.1,1-4.3,1.5-6.4,1.5c-5.7,0-9.7-4.1-9.7-10C33.9,216.2059,37.8,212.2059,43.2,212.2059z
		 M46.9,220.2059c-0.2-2.6-1.7-4.3-3.8-4.3c-2.3,0-4.1,1.7-4.4,4.3H46.9z"></path>
	<path class="st0" d="M54.2,226.4059c1.8,1.1,3.7,1.7,5.5,1.7c1.7,0,2.9-0.9,2.9-2.1c0-3.2-8.7-1.5-8.7-8.1c0-3.4,3-5.8,7.2-5.8
		c1.8,0,3.6,0.4,5.3,1.1v4.2c-1.6-1-3.4-1.5-5-1.5s-2.7,0.8-2.7,1.9c0,3,8.7,1.3,8.7,8.1c0,3.5-3,6-7.4,6c-1.9,0-3.8-0.5-5.8-1.3
		V226.4059z"></path>
	<path class="st0" d="M69.9,226.4059c1.8,1.1,3.7,1.7,5.5,1.7c1.7,0,2.9-0.9,2.9-2.1c0-3.2-8.7-1.5-8.7-8.1c0-3.4,3-5.8,7.2-5.8
		c1.8,0,3.6,0.4,5.3,1.1v4.2c-1.6-1-3.4-1.5-5-1.5s-2.7,0.8-2.7,1.9c0,3,8.7,1.3,8.7,8.1c0,3.5-3,6-7.4,6c-1.9,0-3.8-0.5-5.8-1.3
		V226.4059z"></path>
</g>
<g class="mark">
	<line id="p-bottom-middle" data-letter="p" data-order="1" class="st1" x1="17.5" y1="124" x2="17.5" y2="77.1059" style="stroke-dasharray: 46.8941px; stroke-dashoffset: 0px;"></line>
	<line id="p-bottom-inner" data-letter="p" data-order="2" class="st1" x1="30.4" y1="124" x2="30.4" y2="86.0059" style="stroke-dasharray: 37.9941px; stroke-dashoffset: 0px;"></line>
	<path id="p-bottom-outer" data-letter="p" data-order="0" class="st1" d="M4.7,125V46.2059" style="stroke-dasharray: 78.7941px; stroke-dashoffset: 0px;"></path>
	<path id="s-left" data-letter="s" data-order="0" class="st1" d="M58,2.5059h-6.6c-27.7-0.4-46.7,19.6-46.7,43.7v0c0,16.7,9.4,31.3,23.2,38.6
		c5.3,2.8,11.1,4.4,17.4,6.1c1.7,0.4,3.4,0.8,5.1,1.2c6.2,1.4,12.4,4.4,14.9,11.4c1.1,3,1.2,6.2,0.3,9.3
		c-2.1,7.6-9.7,13.1-20.2,13.1H4.7" style="stroke-dasharray: 244.902px; stroke-dashoffset: 0px;"></path>
	<path id="s-middle" data-letter="s" data-order="1" class="st1" d="M76,15.3059H51.3c-19.4-0.2-33.9,13.8-33.9,30.9c0,17.9,13.2,28.9,30.7,32.3
		c18,3.7,31.1,12.4,31.1,29.4s-13.9,30.9-33.9,30.9H17.5" style="stroke-dasharray: 250.392px; stroke-dashoffset: 0px;"></path>
	<path id="p-top-middle" data-letter="p" data-order="1" class="st1" d="M73.5,28.2059c3.6,5.1,5.8,11.3,5.8,18c0,9.2-4.3,18.2-11.2,24l-1.2,1" style="stroke-dasharray: 48.0963px; stroke-dashoffset: 0px;"></path>
	<path id="p-top-outer" data-letter="p" data-order="2" class="st1" d="M86.5,28.2059c1.1,0,2,0.6,2.4,1.6c2,5,3.2,10.6,3.2,16.3c0,12-4.9,22.9-12.8,30.8l-1.2,1.2" style="stroke-dasharray: 55.7104px; stroke-dashoffset: 0px;"></path>
	<path id="p-top-inner" data-letter="p" data-order="0" class="st1" d="M48.4,28.2059c10,0,18,8.1,18,18s-8.1,19.3-18,19.3" style="stroke-dasharray: 57.4258px; stroke-dashoffset: 0px;"></path>
	<path id="s-right" data-letter="s" data-order="2" class="st1" d="M86.5,28.2059H48.4v0c-9.9,0-18,8-18,18s7.6,17.4,18,19.5c24.6,4.3,43.7,18.1,43.7,42.3
		s-19.5,43.6-46.7,43.6H35.2" style="stroke-dasharray: 243.37px; stroke-dashoffset: 0px;"></path>
</g>
</svg>
